<svg width="166" height="249" viewBox="0 0 166 249" fill="none" xmlns="http://www.w3.org/2000/svg">
<mask id="path-1-inside-1_3_51" fill="white">
<path d="M74.9664 61.9026C116.23 58.2925 152.608 88.8168 156.218 130.081V130.081C159.828 171.344 129.303 207.722 88.0397 211.332V211.332C46.776 214.942 10.3985 184.418 6.78844 143.154V143.154C3.17833 101.89 33.7026 65.5128 74.9664 61.9026V61.9026Z"/>
</mask>
<path d="M149.681 55.366L162.754 204.795L149.681 55.366ZM86.0473 211.506C44.7836 215.116 8.40616 184.592 4.79605 143.328C1.18594 102.065 31.7102 65.6871 72.974 62.077L74.9664 61.9026C34.803 65.4165 5.17072 101.716 8.78083 142.98C12.3909 184.243 47.8764 214.846 88.0397 211.332L86.0473 211.506ZM0.251759 68.4393L149.681 55.366L0.251759 68.4393ZM162.754 204.795L13.3251 217.869L162.754 204.795Z" fill="#E85A4F" mask="url(#path-1-inside-1_3_51)"/>
<mask id="path-3-inside-2_3_51" fill="white">
<path d="M90.0406 211.745C48.6253 212.452 14.4781 179.452 13.7707 138.036V138.036C13.0633 96.6211 46.0636 62.4739 87.4789 61.7665V61.7665C128.894 61.0591 163.041 94.0594 163.749 135.475V135.475C164.456 176.89 131.456 211.037 90.0406 211.745V211.745Z"/>
</mask>
<path d="M15.0516 213.026L12.4898 63.0474L15.0516 213.026ZM89.4786 61.7324C130.894 61.025 165.041 94.0253 165.749 135.441C166.456 176.856 133.456 211.003 92.0403 211.71L90.0406 211.745C130.352 211.056 162.457 176.924 161.749 135.509C161.042 94.0936 127.79 61.078 87.4789 61.7665L89.4786 61.7324ZM165.03 210.464L15.0516 213.026L165.03 210.464ZM12.4898 63.0474L162.468 60.4857L12.4898 63.0474Z" fill="#E85A4F" mask="url(#path-3-inside-2_3_51)"/>
<line x1="83.3844" y1="247.63" x2="83.3844" y2="168.002" stroke="#E85A4F" stroke-width="2"/>
<line y1="-1" x2="21.5314" y2="-1" transform="matrix(0.693986 0.719989 -0.57414 0.818757 69.0001 232.499)" stroke="#E85A4F" stroke-width="2"/>
<line y1="-1" x2="21.5312" y2="-1" transform="matrix(0.694014 -0.719962 0.57411 0.818778 84.0571 248.001)" stroke="#E85A4F" stroke-width="2"/>
<path d="M90.2401 122.952C90.2401 123.572 90.1551 124.125 89.9851 124.61C89.8101 125.095 89.5976 125.512 89.3476 125.862C89.0976 126.212 88.8526 126.5 88.6126 126.725C88.3676 126.95 88.1751 127.115 88.0351 127.22L86.8501 126.387C86.9901 126.272 87.1701 126.117 87.3901 125.922C87.6101 125.727 87.8301 125.487 88.0501 125.202C88.2701 124.917 88.4551 124.585 88.6051 124.205C88.7551 123.825 88.8301 123.395 88.8301 122.915C88.8301 122.46 88.7501 122.047 88.5901 121.677C88.4301 121.307 88.1926 121.012 87.8776 120.792C87.5626 120.567 87.1726 120.455 86.7076 120.455C86.3126 120.455 85.9776 120.535 85.7026 120.695C85.4226 120.855 85.1826 121.077 84.9826 121.362C84.7826 121.647 84.6001 121.98 84.4351 122.36C84.2651 122.74 84.0951 123.15 83.9251 123.59C83.8001 123.9 83.6551 124.215 83.4901 124.535C83.3201 124.855 83.1151 125.15 82.8751 125.42C82.6301 125.69 82.3401 125.907 82.0051 126.073C81.6701 126.237 81.2751 126.32 80.8201 126.32C80.3601 126.32 79.9251 126.232 79.5151 126.057C79.1051 125.882 78.7426 125.635 78.4276 125.315C78.1076 124.995 77.8576 124.615 77.6776 124.175C77.4926 123.73 77.4001 123.237 77.4001 122.697C77.4001 122.217 77.4751 121.765 77.6251 121.34C77.7751 120.91 77.9676 120.527 78.2026 120.192C78.4326 119.857 78.6751 119.59 78.9301 119.39L80.0476 120.102C79.8326 120.267 79.6301 120.477 79.4401 120.732C79.2451 120.987 79.0876 121.28 78.9676 121.61C78.8476 121.94 78.7876 122.295 78.7876 122.675C78.7876 123.14 78.8851 123.535 79.0801 123.86C79.2701 124.18 79.5176 124.425 79.8226 124.595C80.1276 124.765 80.4526 124.85 80.7976 124.85C81.1076 124.85 81.3701 124.787 81.5851 124.662C81.8001 124.532 81.9826 124.36 82.1326 124.145C82.2826 123.93 82.4151 123.687 82.5301 123.417C82.6451 123.147 82.7551 122.87 82.8601 122.585C83.0601 122.075 83.2676 121.592 83.4826 121.137C83.6926 120.682 83.9401 120.282 84.2251 119.937C84.5051 119.592 84.8426 119.322 85.2376 119.127C85.6326 118.927 86.1101 118.827 86.6701 118.827C87.4251 118.827 88.0701 119.007 88.6051 119.367C89.1351 119.722 89.5401 120.21 89.8201 120.83C90.1001 121.45 90.2401 122.157 90.2401 122.952ZM90.2401 110.388C90.2401 111.318 90.0776 112.186 89.7526 112.991C89.4226 113.791 88.9676 114.493 88.3876 115.098C87.8026 115.698 87.1201 116.166 86.3401 116.501C85.5601 116.836 84.7201 117.003 83.8201 117.003C82.9201 117.003 82.0801 116.836 81.3001 116.501C80.5201 116.161 79.8401 115.691 79.2601 115.091C78.6751 114.491 78.2201 113.791 77.8951 112.991C77.5651 112.191 77.4001 111.326 77.4001 110.396C77.4001 109.626 77.5126 108.901 77.7376 108.221C77.9576 107.536 78.2601 106.938 78.6451 106.428L79.9276 107.118C79.5976 107.528 79.3451 108.008 79.1701 108.558C78.9901 109.108 78.9001 109.688 78.9001 110.298C78.9001 111.033 79.0251 111.708 79.2751 112.323C79.5251 112.938 79.8751 113.473 80.3251 113.928C80.7701 114.378 81.2926 114.728 81.8926 114.978C82.4876 115.223 83.1301 115.346 83.8201 115.346C84.5101 115.346 85.1551 115.223 85.7551 114.978C86.3501 114.728 86.8726 114.378 87.3226 113.928C87.7676 113.473 88.1151 112.938 88.3651 112.323C88.6151 111.708 88.7401 111.033 88.7401 110.298C88.7401 109.688 88.6526 109.108 88.4776 108.558C88.2976 108.008 88.0426 107.528 87.7126 107.118L88.9951 106.428C89.3701 106.928 89.6726 107.518 89.9026 108.198C90.1276 108.878 90.2401 109.608 90.2401 110.388ZM90.0001 103.946H77.6251V100.436C77.6251 99.6162 77.7676 98.9062 78.0526 98.3062C78.3376 97.7062 78.7476 97.2437 79.2826 96.9187C79.8126 96.5887 80.4501 96.4237 81.1951 96.4237C81.8451 96.4237 82.4226 96.5512 82.9276 96.8062C83.4326 97.0612 83.8451 97.4262 84.1651 97.9012C84.4851 98.3712 84.6951 98.9337 84.7951 99.5887L90.0001 95.4937V97.4287L84.9526 101.261V102.424H90.0001V103.946ZM83.6551 102.424V100.849C83.6551 100.259 83.5576 99.7512 83.3626 99.3262C83.1676 98.9012 82.8901 98.5737 82.5301 98.3437C82.1651 98.1137 81.7326 97.9987 81.2326 97.9987C80.4876 97.9987 79.9051 98.2512 79.4851 98.7562C79.0651 99.2562 78.8551 99.9537 78.8551 100.849V102.424H83.6551ZM90.2401 87.7714C90.2401 88.6364 90.0751 89.4464 89.7451 90.2014C89.4151 90.9564 88.9576 91.6189 88.3726 92.1889C87.7826 92.7589 87.1001 93.2064 86.3251 93.5314C85.5451 93.8514 84.7101 94.0114 83.8201 94.0114C82.9251 94.0114 82.0901 93.8514 81.3151 93.5314C80.5401 93.2064 79.8601 92.7589 79.2751 92.1889C78.6851 91.6189 78.2251 90.9564 77.8951 90.2014C77.5651 89.4464 77.4001 88.6364 77.4001 87.7714C77.4001 86.9064 77.5651 86.0964 77.8951 85.3414C78.2251 84.5864 78.6851 83.9239 79.2751 83.3539C79.8601 82.7839 80.5401 82.3389 81.3151 82.0189C82.0901 81.6939 82.9251 81.5314 83.8201 81.5314C84.7101 81.5314 85.5451 81.6939 86.3251 82.0189C87.1001 82.3389 87.7826 82.7839 88.3726 83.3539C88.9576 83.9239 89.4151 84.5864 89.7451 85.3414C90.0751 86.0964 90.2401 86.9064 90.2401 87.7714ZM88.7701 87.7714C88.7701 87.1214 88.6451 86.5189 88.3951 85.9639C88.1451 85.4039 87.7976 84.9164 87.3526 84.5014C86.9026 84.0814 86.3776 83.7564 85.7776 83.5264C85.1726 83.2914 84.5201 83.1739 83.8201 83.1739C83.1201 83.1739 82.4701 83.2914 81.8701 83.5264C81.2651 83.7564 80.7401 84.0814 80.2951 84.5014C79.8451 84.9164 79.4951 85.4039 79.2451 85.9639C78.9951 86.5189 78.8701 87.1214 78.8701 87.7714C78.8701 88.4214 78.9951 89.0264 79.2451 89.5864C79.4951 90.1414 79.8451 90.6289 80.2951 91.0489C80.7401 91.4639 81.2651 91.7889 81.8701 92.0239C82.4701 92.2539 83.1201 92.3689 83.8201 92.3689C84.5201 92.3689 85.1726 92.2539 85.7776 92.0239C86.3776 91.7889 86.9026 91.4639 87.3526 91.0489C87.7976 90.6289 88.1451 90.1414 88.3951 89.5864C88.6451 89.0264 88.7701 88.4214 88.7701 87.7714ZM90.0001 78.4872H77.6251V76.9647H88.6576V71.9922H90.0001V78.4872ZM90.0001 69.4052H77.6251V67.8827H88.6576V62.9102H90.0001V69.4052ZM90.0001 56.412H77.6251V53.442C77.6251 52.562 77.7826 51.7445 78.0976 50.9895C78.4126 50.2345 78.8526 49.5745 79.4176 49.0095C79.9776 48.4395 80.6351 47.997 81.3901 47.682C82.1401 47.362 82.9501 47.202 83.8201 47.202C84.6901 47.202 85.5001 47.3595 86.2501 47.6745C87.0001 47.9895 87.6576 48.432 88.2226 49.002C88.7826 49.567 89.2201 50.2295 89.5351 50.9895C89.8451 51.7445 90.0001 52.562 90.0001 53.442V56.412ZM88.6351 54.8895V53.592C88.6351 52.917 88.5151 52.2895 88.2751 51.7095C88.0301 51.1295 87.6901 50.6245 87.2551 50.1945C86.8151 49.7595 86.3026 49.422 85.7176 49.182C85.1326 48.942 84.4976 48.822 83.8126 48.822C83.1276 48.822 82.4926 48.942 81.9076 49.182C81.3226 49.422 80.8126 49.7595 80.3776 50.1945C79.9426 50.6245 79.6026 51.1295 79.3576 51.7095C79.1126 52.2895 78.9901 52.917 78.9901 53.592V54.8895H88.6351ZM90.2401 38.7431C90.2401 39.6081 90.0751 40.4181 89.7451 41.1731C89.4151 41.9281 88.9576 42.5906 88.3726 43.1606C87.7826 43.7306 87.1001 44.1781 86.3251 44.5031C85.5451 44.8231 84.7101 44.9831 83.8201 44.9831C82.9251 44.9831 82.0901 44.8231 81.3151 44.5031C80.5401 44.1781 79.8601 43.7306 79.2751 43.1606C78.6851 42.5906 78.2251 41.9281 77.8951 41.1731C77.5651 40.4181 77.4001 39.6081 77.4001 38.7431C77.4001 37.8781 77.5651 37.0681 77.8951 36.3131C78.2251 35.5581 78.6851 34.8956 79.2751 34.3256C79.8601 33.7556 80.5401 33.3106 81.3151 32.9906C82.0901 32.6656 82.9251 32.5031 83.8201 32.5031C84.7101 32.5031 85.5451 32.6656 86.3251 32.9906C87.1001 33.3106 87.7826 33.7556 88.3726 34.3256C88.9576 34.8956 89.4151 35.5581 89.7451 36.3131C90.0751 37.0681 90.2401 37.8781 90.2401 38.7431ZM88.7701 38.7431C88.7701 38.0931 88.6451 37.4906 88.3951 36.9356C88.1451 36.3756 87.7976 35.8881 87.3526 35.4731C86.9026 35.0531 86.3776 34.7281 85.7776 34.4981C85.1726 34.2631 84.5201 34.1456 83.8201 34.1456C83.1201 34.1456 82.4701 34.2631 81.8701 34.4981C81.2651 34.7281 80.7401 35.0531 80.2951 35.4731C79.8451 35.8881 79.4951 36.3756 79.2451 36.9356C78.9951 37.4906 78.8701 38.0931 78.8701 38.7431C78.8701 39.3931 78.9951 39.9981 79.2451 40.5581C79.4951 41.1131 79.8451 41.6006 80.2951 42.0206C80.7401 42.4356 81.2651 42.7606 81.8701 42.9956C82.4701 43.2256 83.1201 43.3406 83.8201 43.3406C84.5201 43.3406 85.1726 43.2256 85.7776 42.9956C86.3776 42.7606 86.9026 42.4356 87.3526 42.0206C87.7976 41.6006 88.1451 41.1131 88.3951 40.5581C88.6451 39.9981 88.7701 39.3931 88.7701 38.7431ZM90.0001 27.4898L77.6251 31.1348V29.4398L87.9676 26.5673L77.6251 23.2373V22.0748L87.9676 18.7373L77.6251 15.8723V14.1773L90.0001 17.8223V19.5248L80.5951 22.6523L90.0001 25.7798V27.4898ZM90.0001 11.5292H77.6251L77.6251 10.0067L87.4276 3.75172H77.6251V2.22922H90.0001V3.75172L80.2051 10.0067H90.0001V11.5292Z" fill="#E85A4F"/>
</svg>
